<svg fill="#FFFFFF" xmlns="http://www.w3.org/2000/svg"  viewBox="0 0 24 24" width="33px" height="33px"><path d="M 12 2 C 11.453 2 10.895078 2.0437656 10.330078 2.1347656 C 6.3320781 2.7807656 3.0586094 5.9022344 2.2246094 9.8652344 C 1.6556094 12.565234 2.2010781 15.109781 3.4550781 17.175781 L 3 22 L 7.5195312 20.929688 C 8.8685313 21.608688 10.387 22 12 22 C 12.629 22 13.272781 21.940453 13.925781 21.814453 C 18.003781 21.033453 21.247906 17.690937 21.878906 13.585938 C 22.834906 7.3619375 18.043 2 12 2 z M 12 4 C 14.337 4 16.551219 5.0189219 18.074219 6.7949219 C 19.618219 8.5949219 20.266391 10.89725 19.900391 13.28125 C 19.401391 16.52825 16.791781 19.230563 13.550781 19.851562 C 13.034781 19.950563 12.512 20 12 20 C 10.753 20 9.5479688 19.712531 8.4179688 19.144531 L 7.765625 18.816406 L 7.0566406 18.984375 L 5.2539062 19.412109 L 5.4453125 17.365234 L 5.5078125 16.705078 L 5.1640625 16.138672 C 4.4130625 14.901672 3.6336406 12.882297 4.1816406 10.279297 C 4.8506406 7.1062969 7.4493906 4.626375 10.650391 4.109375 C 11.100391 4.036375 11.554 4 12 4 z M 9.2597656 7.0058594 C 8.5506875 6.938875 7.8997344 7.1845156 7.8652344 7.1972656 C 7.3105112 7.7510105 6.9142725 8.799712 7.0234375 9.7617188 L 7.0195312 9.7617188 C 7.0202885 9.766491 7.0226682 9.770623 7.0234375 9.7753906 C 7.0254252 9.7921503 7.0211345 9.8094708 7.0234375 9.8261719 C 7.0625955 10.109018 7.1448354 10.399641 7.2460938 10.691406 C 7.2483087 10.698133 7.2516711 10.704223 7.2539062 10.710938 C 7.3184712 10.894678 7.3916171 11.07957 7.4785156 11.265625 C 8.2533973 13.051645 9.6232238 14.266003 9.6699219 14.306641 C 9.6876096 14.327182 10.849412 15.659257 12.585938 16.447266 C 13.123999 16.713929 13.656325 16.903506 14.169922 16.974609 C 15.148922 17.109609 16.233781 16.698859 16.800781 16.130859 C 16.817781 16.084859 17.248781 14.944297 16.800781 14.029297 C 16.237781 13.545297 15.508938 13.205547 15.085938 13.060547 C 14.824938 12.970547 14.582031 12.947266 14.582031 12.947266 L 13.582031 14.017578 L 13.144531 14.447266 C 12.049702 13.833728 11.119141 12.931641 11.119141 12.931641 L 11.095703 12.90625 L 11.070312 12.882812 C 11.070312 12.882812 10.179098 11.95486 9.5566406 10.869141 L 11.052734 9.3730469 C 11.052734 9.3730469 11.025547 9.1731094 10.935547 8.9121094 C 10.790547 8.4891094 10.450797 7.7602656 9.9667969 7.1972656 C 9.7380469 7.0852656 9.496125 7.0281875 9.2597656 7.0058594 z"/></svg>