<svg width="24" height="22" viewBox="0 0 24 22" fill="none" xmlns="http://www.w3.org/2000/svg">
<path d="M3.99 0.130005C1.88 0.130005 0 2.369 0 4.575C0 5.975 0.827 7.08 1.73 7.702C1.27236 8.86506 0.944377 10.075 0.752 11.31C-0.453 18.704 6.576 21.87 12.193 21.87C17.81 21.87 24.043 18.258 23.256 11.31C23.1216 10.0497 22.8248 8.81214 22.373 7.62801C23.235 6.99301 24 5.92 24 4.574C24 2.368 22.121 0.131005 20.01 0.131005C18.476 0.131005 16.795 0.376005 15.99 1.355C14.7661 0.945748 13.4835 0.740016 12.193 0.746005C10.731 0.746005 9.337 0.964005 8.053 1.412C7.266 0.386005 5.553 0.131005 3.99 0.131005V0.130005ZM12.12 2.902C16.625 2.902 20.36 5.79801 20.992 11.369C21.624 16.939 16.625 19.836 12.119 19.836C7.613 19.836 1.973 17.297 2.939 11.369C3.905 5.44101 7.614 2.902 12.12 2.902ZM7.604 8.08C5.852 8.08 4.833 10.285 4.833 12.457C4.833 14.629 5.499 15.302 7.097 15.684C8.695 16.064 10.52 13.992 10.52 11.82C10.52 9.648 9.357 8.08 7.604 8.08ZM16.456 8.08C14.703 8.08 13.54 9.649 13.54 11.82C13.54 13.991 15.364 16.065 16.962 15.684C18.56 15.303 19.228 14.629 19.228 12.457C19.228 10.285 18.208 8.08 16.456 8.08ZM8.076 9.66C8.998 9.66 9.176 10.37 9.176 11.295C9.176 12.219 8.606 12.928 7.683 12.928C7.248 12.928 7.117 12.818 6.921 12.568C6.701 12.288 6.537 11.965 6.591 11.295C6.681 10.176 7.153 9.66 8.075 9.66H8.076ZM15.986 9.66C16.908 9.66 17.378 10.176 17.468 11.295C17.522 11.965 17.358 12.289 17.138 12.568C16.941 12.818 16.811 12.928 16.376 12.928C15.453 12.928 14.882 12.219 14.882 11.295C14.882 10.371 15.062 9.66 15.985 9.66H15.986ZM12.061 14.664C11.193 14.664 10.337 14.753 10.337 15.301C10.337 15.849 11.205 17.127 12.073 17.127C12.942 17.127 13.784 15.849 13.784 15.301C13.784 14.753 12.93 14.664 12.061 14.664Z" fill="black"/>
</svg>
